<svg width="220" height="38" viewBox="0 0 220 38" fill="none" xmlns="http://www.w3.org/2000/svg">
<path d="M78.2721 17.6992C77.5824 17.6992 77.0655 17.2293 77.0655 16.6812V15.8198C77.0655 15.2716 77.5824 14.8017 78.2721 14.8017H84.6519C85.3416 14.8017 85.8585 15.2716 85.8585 15.8198V17.0727C85.8585 21.1449 83.0137 23.5725 77.4966 23.5725H74.6518C69.1342 23.5725 65.9445 21.0666 65.9445 15.5065C65.9445 9.94642 69.1342 7.44049 75.3414 7.44049H78.1863C81.7208 7.44049 85.5137 9.08504 85.5137 11.5127C85.5137 12.5307 84.5656 12.7656 84.2208 12.7656H82.7552C82.0656 12.7656 81.4623 12.4524 81.0311 11.7476C80.6 10.9645 79.3929 10.5729 77.8415 10.5729H75.5999C71.8927 10.5729 70.8583 11.7476 70.8583 15.5065C70.8583 19.2654 71.8927 20.4401 74.9103 20.4401H77.4966C80.3415 20.4401 81.2896 19.422 81.2896 17.7775H78.2721V17.6992Z" fill="#2F83C1"/>
<path d="M93.6177 7.44061C94.3073 7.44061 94.8243 7.91051 94.8243 8.53696V20.2836H105.859C106.549 20.2836 107.066 20.7534 107.066 21.3016V22.3197C107.066 22.9461 106.549 23.3377 105.859 23.3377H91.2034C90.5138 23.3377 89.9969 22.8678 89.9969 22.3197V8.45865C89.9969 7.8322 90.5138 7.3623 91.2034 7.3623H93.6177V7.44061Z" fill="#2F83C1"/>
<path d="M119.48 7.04782C125.946 7.04782 129.653 9.4755 129.653 15.3488C129.653 21.3004 125.946 23.6497 119.48 23.6497C113.015 23.6497 109.308 21.2221 109.308 15.3488C109.308 9.4755 113.015 7.04782 119.48 7.04782ZM114.049 15.4271C114.049 18.8728 115.601 20.7522 119.48 20.7522C123.36 20.7522 124.912 18.8728 124.912 15.4271C124.912 11.9814 123.36 10.102 119.48 10.102C115.601 10.102 114.049 11.9814 114.049 15.4271Z" fill="#2F83C1"/>
<path d="M134.653 23.4158C133.963 23.4158 133.446 22.946 133.446 22.3979V8.45853C133.446 7.91039 133.963 7.44049 134.653 7.44049H138.36C138.963 7.44049 139.739 7.98869 140.084 8.45853L147.757 18.7955V8.45853C147.757 7.91039 148.274 7.44049 148.963 7.44049H151.119C151.808 7.44049 152.326 7.91039 152.326 8.45853V22.3195C152.326 22.8677 151.808 23.3375 151.119 23.3375H146.894C146.205 23.3375 145.429 22.8677 145.084 22.3195L138.101 12.7656V22.3195C138.101 22.8677 137.584 23.3375 136.894 23.3375H134.653V23.4158Z" fill="#2F83C1"/>
<path d="M159.223 11.7476C160.257 8.22361 163.964 7.44049 167.671 7.44049H174.482C175.085 7.44049 175.602 7.91039 175.602 8.45853V22.3979C175.602 22.946 175.085 23.4158 174.395 23.4158H171.982C171.292 23.4158 170.775 22.946 170.775 22.3979V19.5787H161.723L160.86 22.3979C160.688 23.0243 159.998 23.4158 159.395 23.4158H156.895C156.205 23.4158 155.86 22.946 156.033 22.3979L159.223 11.7476ZM162.671 16.3679H170.775V10.5729H167.154C165.516 10.5729 164.223 11.4344 163.791 12.8439L162.671 16.3679Z" fill="#2F83C1"/>
<path d="M187.93 23.4159C186.981 23.4159 186.464 22.946 186.12 22.2412L178.792 8.38023C178.533 7.91039 179.05 7.44049 179.654 7.44049H182.412C183.102 7.44049 183.619 7.91039 183.878 8.45853L188.792 18.0908L193.706 8.45853C193.965 7.91039 194.568 7.44049 195.171 7.44049H197.93C198.534 7.44049 199.05 7.91039 198.792 8.38023L191.465 22.3195C191.12 23.0243 190.516 23.4942 189.654 23.4942H187.93V23.4159Z" fill="#2F83C1"/>
<path d="M218.793 7.44049C219.482 7.44049 220 7.91039 220 8.45853V9.47658C220 10.1031 219.482 10.4946 218.793 10.4946H213.103V22.3195C213.103 22.8677 212.586 23.3375 211.897 23.3375H209.482C208.793 23.3375 208.276 22.8677 208.276 22.3195V10.5729H202.586C201.896 10.5729 201.379 10.1031 201.379 9.55488V8.53684C201.379 7.91039 201.896 7.5188 202.586 7.5188H218.793V7.44049Z" fill="#2F83C1"/>
<path d="M36.8059 21.927C35.8577 21.2222 34.9956 20.5957 33.8749 20.2041C33.6162 21.3788 32.3231 26.7039 27.4954 30.0713C27.4954 30.0713 18.5296 24.7462 19.478 12.9996C20.1676 4.93355 25.685 2.58424 31.5472 3.44567C37.0646 4.3854 39.6508 8.30091 40.5129 10.4936H40.7716C40.0819 6.42149 38.0129 3.91556 35.9438 2.42762C34.3059 1.25296 32.5817 0.704816 31.5472 0.469896C30.3403 0.156614 28.8747 0 27.0644 0C17.1503 0.156614 12.8399 7.67445 12.8399 14.5658C12.8399 20.3608 15.5124 30.7761 27.0644 37.5891C27.0644 37.5891 35.2542 33.3604 39.1336 23.4149C38.1853 23.0234 37.4956 22.3969 36.8059 21.927Z" fill="url(#paint0_linear_18_67)"/>
<path d="M39.0473 28.3479C38.7025 28.3479 38.3577 28.113 38.3577 27.8781C38.2714 27.6432 38.5301 27.4083 38.8749 27.4866C43.3577 27.6432 46.2889 26.8601 46.8923 25.3722C48.1855 22.1614 38.9611 17.2278 27.4091 13.5472C15.8572 9.78835 5.42584 8.37877 4.21893 11.5895C3.70166 12.9991 4.99479 14.9568 7.92593 17.1495C8.18452 17.3845 8.27075 17.6194 8.01211 17.776C7.75347 17.9326 7.40866 17.9326 7.06384 17.6977C1.80507 14.3304 -0.694978 11.1196 0.167112 8.84861C1.8913 4.54152 14.564 4.77644 29.1333 9.47512C43.7026 14.1738 53.7029 21.2217 52.0646 25.6071C51.2028 28.0347 46.4613 29.1311 39.0473 28.3479Z" fill="url(#paint1_linear_18_67)"/>
<path d="M24.1334 16.0538L24.9093 19.1862C28.8749 21.0657 32.237 23.8849 32.4957 24.1981C32.4957 24.1981 34.4784 30.1497 26.9783 37.4326C29.6508 35.9447 31.2887 34.6917 33.2715 32.6556C34.8233 31.0111 36.1164 29.3666 37.2371 27.6438L40.1683 22.7885C40.082 22.7885 31.6336 18.3248 24.1334 16.0538Z" fill="url(#paint2_linear_18_67)"/>
<defs>
<linearGradient id="paint0_linear_18_67" x1="12.7505" y1="18.6526" x2="40.7598" y2="18.6526" gradientUnits="userSpaceOnUse">
<stop stop-color="#BCE4E9"/>
<stop offset="1" stop-color="#00BCE2"/>
</linearGradient>
<linearGradient id="paint1_linear_18_67" x1="14.1437" y1="-0.607631" x2="31.5878" y2="30.3927" gradientUnits="userSpaceOnUse">
<stop stop-color="#C1E8FB"/>
<stop offset="1" stop-color="#1B75BC"/>
</linearGradient>
<linearGradient id="paint2_linear_18_67" x1="-4.20855" y1="26.7258" x2="42.3935" y2="26.7258" gradientUnits="userSpaceOnUse">
<stop stop-color="#C1E8FB"/>
<stop offset="1" stop-color="#1B75BC"/>
</linearGradient>
</defs>
</svg>
