<svg width="79" height="44" viewBox="0 0 79 44" fill="none" xmlns="http://www.w3.org/2000/svg">
<g id="logo" clip-path="url(#clip0_194_48156)">
<g id="Vector">
<path d="M0.5 43.817V37.3348H1.86606C2.88658 37.3348 3.60175 37.3825 4.02764 37.4779C4.45354 37.5734 4.82317 37.7325 5.13655 37.9552C5.55441 38.2415 5.86781 38.6074 6.07672 39.0527C6.29369 39.4982 6.39815 40.0072 6.39815 40.5799C6.39815 41.1526 6.29369 41.6616 6.07672 42.107C5.85976 42.5524 5.54638 42.9183 5.13655 43.2046C4.82317 43.4194 4.46157 43.5784 4.05175 43.6738C3.64997 43.7693 3.01515 43.817 2.16337 43.817H0.5ZM2.26784 42.3615H2.56515C3.26425 42.3615 3.77854 42.2184 4.09996 41.932C4.42138 41.6457 4.58211 41.1923 4.58211 40.572C4.58211 39.9516 4.42138 39.4982 4.09996 39.2118C3.77854 38.9255 3.26425 38.7744 2.56515 38.7744H2.26784V42.3615Z" fill="#1D1D1B"/>
<path d="M7.78836 43.817V37.3348H9.58835V43.817H7.78836Z" fill="#1D1D1B"/>
<path d="M14.3775 40.0709H17.8892C17.8892 40.1186 17.8972 40.1663 17.8972 40.2139C17.8972 40.2697 17.8972 40.3492 17.8972 40.4527C17.8972 41.5662 17.5998 42.4331 17.0052 43.0535C16.4106 43.6659 15.5748 43.9761 14.49 43.9761C13.9597 43.9761 13.4856 43.8966 13.0758 43.7375C12.666 43.5784 12.2963 43.3399 11.9669 43.0137C11.6535 42.7035 11.4124 42.3377 11.2437 41.9161C11.0749 41.4946 10.9865 41.0491 10.9865 40.5878C10.9865 40.1027 11.0669 39.6573 11.2356 39.2516C11.4044 38.846 11.6535 38.48 11.9829 38.154C12.3124 37.8359 12.6901 37.5972 13.116 37.4381C13.5418 37.2791 13.9999 37.1916 14.49 37.1916C15.1329 37.1916 15.6954 37.3188 16.1936 37.5655C16.6838 37.8199 17.1016 38.1938 17.4391 38.6869L15.8882 39.4187C15.7034 39.1641 15.4945 38.9811 15.2615 38.8618C15.0284 38.7425 14.7712 38.6789 14.482 38.6789C13.9517 38.6789 13.5258 38.8539 13.2204 39.2118C12.9151 39.5617 12.7624 40.047 12.7624 40.6594C12.7624 41.2798 12.9151 41.765 13.2204 42.115C13.5258 42.4728 13.9517 42.6479 14.482 42.6479C14.9321 42.6479 15.3096 42.5365 15.615 42.3217C15.9204 42.099 16.0972 41.8127 16.1454 41.4388H14.3775V40.0709Z" fill="#1D1D1B"/>
<path d="M19.2632 43.817V37.3348H21.0631V43.817H19.2632Z" fill="#1D1D1B"/>
<path d="M23.6748 43.817V38.8618H22.2043V37.3268H26.9212V38.8618H25.4506V43.817H23.6748Z" fill="#1D1D1B"/>
<path d="M26.889 43.817L29.1471 37.3348H31.381L33.647 43.817H31.8712L31.5417 42.6558H29.0104L28.6729 43.817H26.889ZM29.3962 41.3912H31.1721L30.505 39.2516C30.481 39.188 30.4568 39.0846 30.4167 38.9334C30.3845 38.7902 30.3363 38.5995 30.2801 38.3767C30.2399 38.5358 30.1998 38.6869 30.1676 38.8301C30.1274 38.9732 30.0953 39.1164 30.0551 39.2436L29.3962 41.3912Z" fill="#1D1D1B"/>
<path d="M34.5069 43.817V37.3348H36.2907V42.3059H38.5086V43.817H34.5069Z" fill="#1D1D1B"/>
<path d="M43.0005 41.7173C43.2657 42.0195 43.5309 42.2422 43.7879 42.3854C44.0451 42.5365 44.3022 42.6081 44.5594 42.6081C44.8004 42.6081 44.9933 42.5444 45.146 42.4172C45.2986 42.2899 45.379 42.1308 45.379 41.932C45.379 41.7173 45.3147 41.5502 45.1781 41.4309C45.0415 41.3116 44.7442 41.1923 44.2782 41.073C43.6352 40.898 43.1853 40.6753 42.9201 40.4048C42.6549 40.1265 42.5183 39.7526 42.5183 39.2755C42.5183 38.6551 42.7273 38.1461 43.1451 37.7564C43.5629 37.3665 44.1093 37.1677 44.7764 37.1677C45.1379 37.1677 45.4835 37.2154 45.8049 37.3109C46.1263 37.4063 46.4316 37.5495 46.721 37.7483L46.1584 39.0209C45.9576 38.846 45.7487 38.7188 45.5317 38.6312C45.3147 38.5437 45.1058 38.504 44.8969 38.504C44.6799 38.504 44.5112 38.5517 44.3745 38.6551C44.238 38.7585 44.1736 38.8857 44.1736 39.0448C44.1736 39.2039 44.23 39.3391 44.3505 39.4345C44.471 39.53 44.696 39.6254 45.0334 39.7129L45.1138 39.7368C45.8451 39.9356 46.3191 40.1425 46.5522 40.3811C46.7049 40.5401 46.8254 40.731 46.9057 40.9538C46.9861 41.1763 47.0262 41.423 47.0262 41.6934C47.0262 42.3775 46.8013 42.9342 46.3433 43.3557C45.8852 43.7773 45.2745 43.984 44.5192 43.984C44.0611 43.984 43.6514 43.9045 43.2737 43.7534C42.896 43.6024 42.5424 43.3557 42.1969 43.0297L43.0005 41.7173Z" fill="#0F54A0"/>
<path d="M49.212 43.817V38.8618H47.7415V37.3268H52.4584V38.8618H50.9878V43.817H49.212Z" fill="#0F54A0"/>
<path d="M53.519 37.3347H55.3029V40.4844C55.3029 40.9457 55.3109 41.2798 55.3351 41.4865C55.3593 41.6855 55.3994 41.8604 55.4556 41.9957C55.528 42.1627 55.6405 42.2899 55.8172 42.3775C55.986 42.4649 56.1949 42.5047 56.4359 42.5047C56.6771 42.5047 56.886 42.4649 57.0547 42.3775C57.2235 42.2899 57.344 42.1627 57.4164 41.9957C57.4726 41.8604 57.5128 41.6934 57.5369 41.4865C57.5609 41.2877 57.5691 40.9538 57.5691 40.4844V37.3268H59.3449V40.7548C59.3449 41.4628 59.3047 41.9876 59.2163 42.3296C59.128 42.6717 58.9833 42.9581 58.7744 43.1967C58.5494 43.4592 58.244 43.658 57.8503 43.7852C57.4566 43.9205 56.9823 43.984 56.4279 43.984C55.8655 43.984 55.3914 43.9205 55.0057 43.7852C54.62 43.6501 54.3066 43.4592 54.0816 43.1967C53.8807 42.9581 53.736 42.6717 53.6477 42.3296C53.5592 41.9957 53.519 41.4707 53.519 40.7548V37.3347Z" fill="#0F54A0"/>
<path d="M60.9359 43.817V37.3348H62.3021C63.3226 37.3348 64.0377 37.3825 64.4636 37.4779C64.8895 37.5734 65.2592 37.7325 65.5726 37.9552C65.9903 38.2415 66.3038 38.6074 66.5127 39.0527C66.7296 39.4982 66.8341 40.0072 66.8341 40.5799C66.8341 41.1526 66.7296 41.6616 66.5127 42.107C66.2957 42.5524 65.9823 42.9183 65.5726 43.2046C65.2592 43.4194 64.8975 43.5784 64.4877 43.6738C64.0859 43.7693 63.4511 43.817 62.5993 43.817H60.9359ZM62.7038 42.3615H63.0012C63.7003 42.3615 64.2145 42.2184 64.5359 41.932C64.8573 41.6457 65.018 41.1923 65.018 40.572C65.018 39.9516 64.8573 39.4982 64.5359 39.2118C64.2145 38.9255 63.7003 38.7744 63.0012 38.7744H62.7038V42.3615Z" fill="#0F54A0"/>
<path d="M68.2323 43.817V37.3348H70.0322V43.817H68.2323Z" fill="#0F54A0"/>
<path d="M78.4296 40.5878C78.4296 41.0571 78.3412 41.4946 78.1725 41.9002C77.9957 42.3059 77.7466 42.6717 77.4171 42.9978C77.0796 43.3159 76.702 43.5626 76.268 43.7375C75.8422 43.9125 75.3921 44 74.9341 44C74.468 44 74.0181 43.9125 73.5922 43.7375C73.1663 43.5626 72.7886 43.3159 72.4591 42.9978C72.1217 42.6797 71.8645 42.3138 71.6958 41.9002C71.5189 41.4867 71.4306 41.0571 71.4306 40.5957C71.4306 40.1344 71.5189 39.697 71.6958 39.2834C71.8725 38.8778 72.1297 38.5119 72.4591 38.1858C72.7806 37.8677 73.1582 37.6211 73.5922 37.4462C74.0181 37.2711 74.468 37.1837 74.9341 37.1837C75.4001 37.1837 75.8502 37.2711 76.2761 37.4462C76.71 37.6211 77.0877 37.8677 77.4171 38.1858C77.7466 38.504 77.9957 38.8699 78.1725 39.2834C78.3412 39.6891 78.4296 40.1265 78.4296 40.5878ZM74.9341 42.4888C75.4323 42.4888 75.8422 42.3059 76.1636 41.948C76.485 41.59 76.6457 41.1367 76.6457 40.5878C76.6457 40.047 76.485 39.5936 76.1556 39.2278C75.826 38.8618 75.4163 38.6869 74.9341 38.6869C74.4359 38.6869 74.0261 38.8699 73.7046 39.2278C73.3832 39.5856 73.2225 40.047 73.2225 40.5878C73.2225 41.1446 73.3832 41.5979 73.7046 41.9559C74.0181 42.3138 74.4278 42.4888 74.9341 42.4888Z" fill="#0F54A0"/>
<path fill-rule="evenodd" clip-rule="evenodd" d="M4.95978 17.7209L19.215 6.10846L33.4703 17.7209V0H37.9219V27.0666L19.215 11.8192L0.5 27.0666V0H4.95978V17.7209Z" fill="#1D1D1B"/>
<path fill-rule="evenodd" clip-rule="evenodd" d="M19.231 22.9545L7.56332 32.4671H0.540176L19.231 17.2357L37.9219 32.4671H30.9069L19.231 22.9545Z" fill="#0F54A0"/>
<path fill-rule="evenodd" clip-rule="evenodd" d="M45.4835 17.7209L59.7387 6.10846L74.002 17.7209L73.9939 0H78.4536V27.0666L59.7387 11.8192L41.0317 27.0666V0H45.4835V17.7209Z" fill="#1D1D1B"/>
<path fill-rule="evenodd" clip-rule="evenodd" d="M59.7627 22.9545L48.087 32.4671H41.0719L59.7627 17.2357L78.4536 32.4671H71.4386L59.7627 22.9545Z" fill="#0F54A0"/>
</g>
</g>
<defs>
<clipPath id="clip0_194_48156">
<rect width="78" height="44" fill="white" transform="translate(0.5)"/>
</clipPath>
</defs>
</svg>
